<svg width="224" height="56" viewBox="0 0 224 56" fill="none" xmlns="http://www.w3.org/2000/svg">
<g id="trustpilot-logo">
<path id="Shape" fill-rule="evenodd" clip-rule="evenodd" d="M172.896 19.5875H177.331V23.8277H172.896V19.5875ZM59.016 19.5877H81.452V23.8279H72.618V47.7307H67.776V23.8279H58.979L59.016 19.5877ZM80.4906 27.355H84.6304V31.2951H84.7043C84.8521 30.7322 85.1109 30.2069 85.4805 29.6815C85.8501 29.1562 86.2937 28.6684 86.8481 28.2556C87.3656 27.8053 87.957 27.4676 88.6223 27.2049C89.2506 26.9423 89.916 26.7922 90.5813 26.7922C90.9052 26.7922 91.1712 26.8069 91.3701 26.8179C91.4891 26.8244 91.584 26.8297 91.6532 26.8297C91.838 26.8672 92.0598 26.9047 92.2446 26.9047V31.22C91.9489 31.145 91.6162 31.1074 91.2836 31.0699L91.193 31.0596C90.8964 31.0258 90.6247 30.9949 90.3225 30.9949C89.5833 30.9949 88.881 31.145 88.2157 31.4452C87.5504 31.7454 86.9959 32.1956 86.4785 32.7585C85.998 33.3589 85.5914 34.0718 85.2957 34.9349C85 35.798 84.8521 36.8111 84.8521 37.9368V47.618H80.4167L80.4906 27.355ZM108.212 47.7304H112.574H112.611V27.3549H108.175V39.1749C108.175 39.9629 108.101 40.7134 107.916 41.3889C107.732 42.0643 107.473 42.6647 107.066 43.1525C106.697 43.6403 106.179 44.0155 105.551 44.3157C104.922 44.6159 104.146 44.766 103.222 44.766C102.002 44.766 101.041 44.3908 100.376 43.6403C99.6738 42.9273 99.3411 41.6515 99.3411 39.8504V27.3549H94.9056V40.3007C94.9056 42.9649 95.497 44.9912 96.6798 46.3045C97.8626 47.6554 99.7846 48.2933 102.409 48.2933C103.518 48.2933 104.627 47.9931 105.699 47.3552C106.77 46.7173 107.584 45.9293 108.138 44.8786H108.212V47.7304ZM120.114 41.2012C120.262 42.5146 120.742 43.4152 121.592 43.978C122.442 44.5034 123.477 44.766 124.66 44.766C125.067 44.766 125.547 44.7285 126.065 44.6535C126.582 44.5784 127.1 44.4658 127.543 44.2782C128.024 44.0906 128.393 43.8279 128.689 43.4527C128.985 43.0774 129.133 42.6272 129.096 42.0643C129.059 41.5014 128.874 41.0136 128.467 40.6384C128.061 40.2631 127.58 40.0005 126.989 39.7378C126.397 39.5127 125.695 39.325 124.919 39.1749C124.287 39.0528 123.656 38.9059 123.004 38.7543C122.855 38.7196 122.705 38.6846 122.553 38.6496C121.74 38.462 120.927 38.2368 120.151 37.9742C119.375 37.7115 118.709 37.3738 118.081 36.886C117.489 36.4357 116.972 35.8728 116.639 35.1599C116.27 34.4469 116.085 33.6214 116.085 32.5707C116.085 31.445 116.344 30.5444 116.898 29.7939C117.416 29.0434 118.118 28.443 118.931 27.9928C119.744 27.5425 120.668 27.2048 121.666 27.0171C122.664 26.8295 123.625 26.7545 124.512 26.7545C125.547 26.7545 126.545 26.867 127.469 27.0922C128.393 27.3173 129.28 27.655 130.02 28.1804C130.796 28.6682 131.424 29.3436 131.905 30.1316C132.422 30.9196 132.718 31.8953 132.866 33.021H128.245C128.024 31.9328 127.543 31.2198 126.804 30.8446C126.028 30.4694 125.178 30.2817 124.18 30.2817C123.884 30.2817 123.477 30.3193 123.071 30.3568C122.627 30.4318 122.258 30.5069 121.851 30.657C121.481 30.8071 121.149 31.0322 120.89 31.2949C120.631 31.5575 120.483 31.9328 120.483 32.3831C120.483 32.9459 120.668 33.3587 121.038 33.6964C121.407 34.0341 121.888 34.2968 122.516 34.5595C123.108 34.7846 123.81 34.9722 124.586 35.1223C125.362 35.2724 126.175 35.46 126.989 35.6476L126.989 35.6477C127.802 35.8353 128.578 36.0604 129.354 36.3231C130.131 36.5858 130.833 36.9235 131.424 37.4113C132.016 37.8616 132.533 38.4245 132.903 39.0999C133.272 39.7753 133.457 40.6384 133.457 41.614C133.457 42.8148 133.198 43.8279 132.644 44.691C132.09 45.5165 131.387 46.2295 130.537 46.7548C129.687 47.2801 128.689 47.6554 127.654 47.918C126.582 48.1432 125.547 48.2933 124.512 48.2933C123.256 48.2933 122.073 48.1432 121.001 47.843C119.929 47.5428 118.968 47.0925 118.192 46.5297C117.416 45.9293 116.787 45.2163 116.344 44.3157C115.9 43.4527 115.641 42.402 115.604 41.1637H120.077V41.2012H120.114ZM138.079 27.3549H134.715V30.6946H138.079V42.7023C138.116 43.5278 138.19 44.3158 138.337 44.9537C138.485 45.5916 138.744 46.117 139.151 46.5673C139.557 46.98 140.112 47.3177 140.814 47.5429C141.516 47.768 142.44 47.8806 143.623 47.8806C144.14 47.8806 144.584 47.8806 145.065 47.8056C145.545 47.768 146.026 47.7305 146.506 47.6555V44.1657C146.24 44.2333 145.943 44.2705 145.671 44.3046L145.582 44.3158C145.286 44.3533 144.954 44.3533 144.658 44.3533C144.14 44.3533 143.771 44.2783 143.475 44.1657C143.216 44.0532 142.995 43.8655 142.847 43.6404C142.736 43.4152 142.625 43.1151 142.588 42.7773C142.551 42.4021 142.514 42.0269 142.514 41.539V30.6571H146.506V27.3174H142.514V21.201H138.079V27.3549ZM149.648 27.355H153.788V30.1318H153.861C154.49 28.931 155.34 28.1055 156.449 27.5802C157.558 27.0548 158.74 26.7922 160.071 26.7922C161.66 26.7922 163.028 27.0548 164.211 27.6552C165.394 28.2181 166.355 28.9686 167.131 29.9817C167.907 30.9573 168.498 32.1206 168.868 33.4339C169.238 34.7473 169.46 36.1732 169.46 37.6366C169.46 39.025 169.275 40.3384 168.942 41.6142C168.572 42.89 168.055 44.0533 167.353 45.0289C166.65 46.0045 165.763 46.7925 164.654 47.3929C163.546 47.9933 162.289 48.2935 160.81 48.2935C160.182 48.2935 159.517 48.2184 158.888 48.1059C158.26 47.9933 157.632 47.8057 157.04 47.543C156.449 47.2803 155.894 46.9426 155.414 46.5298C154.896 46.1171 154.49 45.6293 154.157 45.1039H154.083V55.273H149.648V27.355ZM164.727 34.8974C164.986 35.7604 165.097 36.661 165.097 37.5616C165.097 38.4622 164.986 39.3252 164.801 40.2258C164.616 41.0889 164.283 41.8393 163.84 42.5148C163.359 43.1527 162.805 43.7155 162.103 44.1283C161.4 44.5411 160.587 44.7662 159.552 44.7662C158.628 44.7662 157.852 44.5786 157.15 44.2034C156.447 43.8281 155.856 43.3403 155.375 42.7024C154.858 42.0645 154.525 41.314 154.267 40.451C154.008 39.5879 153.897 38.6498 153.897 37.5991C153.897 35.4227 154.378 33.6591 155.302 32.3458C156.263 31.0324 157.667 30.3945 159.515 30.3945C160.402 30.3945 161.216 30.5821 161.918 30.9949C162.583 31.4077 163.175 31.933 163.655 32.6084C164.136 33.2839 164.505 34.0343 164.727 34.8974ZM177.331 27.3549H172.896V47.7304H177.331V27.3549ZM181.287 19.5875H185.722V47.7306H181.287V19.5875ZM194.962 47.4679C196.219 48.0308 197.66 48.2935 199.25 48.2935C200.876 48.2935 202.281 47.9933 203.537 47.4679C204.794 46.9426 205.866 46.1921 206.716 45.254C207.566 44.2784 208.194 43.1527 208.675 41.8393C209.155 40.526 209.377 39.1001 209.377 37.5241C209.377 35.9856 209.119 34.5597 208.675 33.2463C208.231 31.933 207.566 30.7697 206.716 29.8316C205.829 28.8935 204.794 28.143 203.537 27.6177C202.281 27.0548 200.839 26.7922 199.25 26.7922C197.66 26.7922 196.219 27.0924 194.962 27.6177C193.705 28.143 192.633 28.8935 191.783 29.8316C190.933 30.8073 190.268 31.933 189.824 33.2463C189.344 34.5597 189.122 35.9856 189.122 37.5241C189.122 39.0626 189.381 40.526 189.824 41.8393C190.268 43.1527 190.933 44.3159 191.783 45.254C192.67 46.1921 193.705 46.9051 194.962 47.4679ZM199.251 44.7287C200.212 44.7287 201.099 44.5036 201.802 44.0908C202.541 43.678 203.095 43.1152 203.576 42.4397C204.056 41.7643 204.389 40.9763 204.611 40.1508C204.832 39.2877 204.943 38.4247 204.943 37.5241C204.943 36.661 204.832 35.798 204.611 34.9349C204.389 34.0719 204.056 33.3214 203.576 32.6459C203.095 31.9705 202.504 31.4452 201.802 31.0324C201.062 30.6196 200.212 30.3945 199.251 30.3945C198.29 30.3945 197.403 30.6196 196.701 31.0324C195.962 31.4452 195.407 32.008 194.927 32.6459C194.446 33.3214 194.113 34.0719 193.892 34.9349C193.67 35.798 193.559 36.661 193.559 37.5241C193.559 38.4247 193.67 39.2877 193.892 40.1508C194.113 41.0138 194.446 41.7643 194.927 42.4397C195.407 43.1152 195.999 43.678 196.701 44.0908C197.44 44.5411 198.29 44.7287 199.251 44.7287ZM214.072 27.3549H210.709V30.6946H214.072V42.7023C214.109 43.5278 214.183 44.3158 214.331 44.9537C214.479 45.5916 214.738 46.117 215.144 46.5673C215.551 46.98 216.105 47.3177 216.808 47.5429C217.51 47.768 218.434 47.8806 219.617 47.8806C220.134 47.8806 220.578 47.8806 221.058 47.8056C221.539 47.768 222.019 47.7305 222.5 47.6555V44.1657C222.233 44.2333 221.937 44.2705 221.665 44.3046C221.635 44.3084 221.605 44.3121 221.576 44.3158C221.28 44.3533 220.947 44.3533 220.652 44.3533C220.134 44.3533 219.765 44.2783 219.469 44.1657C219.21 44.0532 218.988 43.8655 218.841 43.6404C218.73 43.4152 218.619 43.1151 218.582 42.7773C218.545 42.4021 218.508 42.0269 218.508 41.539V30.6571H222.5V27.3174H218.508V21.201H214.072V27.3549Z" fill="white"/>
<path id="Path" d="M53.8412 19.5876H33.549L27.3024 0L21.0188 19.5876L0.726562 19.55L17.1378 31.6703L10.8542 51.2579L27.2654 39.1376L43.6766 51.2579L37.43 31.6703L53.8412 19.5876Z" fill="#00B67A"/>
<path id="Path_2" d="M38.8354 36.0981L37.4309 31.6703L27.3032 39.1376L38.8354 36.0981Z" fill="#005128"/>
</g>
</svg>
