<svg width="21" height="20" viewBox="0 0 21 20" fill="none" xmlns="http://www.w3.org/2000/svg">
<path fill-rule="evenodd" clip-rule="evenodd" d="M5.04134 10.8346H14.9288L11.9013 14.468C11.6063 14.8213 11.6547 15.3471 12.008 15.6413C12.3622 15.9363 12.8872 15.888 13.1822 15.5346L17.3488 10.5346C17.3813 10.4955 17.3972 10.4496 17.4213 10.4063C17.4413 10.3713 17.4655 10.3413 17.4805 10.303C17.518 10.2071 17.5405 10.1063 17.5405 10.0046C17.5405 10.0038 17.5413 10.0021 17.5413 10.0013C17.5413 10.0005 17.5405 9.9988 17.5405 9.99797C17.5405 9.8963 17.518 9.79547 17.4805 9.69964C17.4655 9.6613 17.4413 9.6313 17.4213 9.5963C17.3972 9.55297 17.3813 9.50714 17.3488 9.46797L13.1822 4.46797C13.0163 4.27047 12.7797 4.16797 12.5413 4.16797C12.353 4.16797 12.1638 4.2313 12.008 4.3613C11.6547 4.65547 11.6063 5.1813 11.9013 5.53464L14.9288 9.16797H5.04134C4.58134 9.16797 4.20801 9.5413 4.20801 10.0013C4.20801 10.4613 4.58134 10.8346 5.04134 10.8346" fill="white"/>
<mask id="mask0_607_110" style="mask-type:luminance" maskUnits="userSpaceOnUse" x="4" y="4" width="14" height="12">
<path fill-rule="evenodd" clip-rule="evenodd" d="M5.04134 10.8346H14.9288L11.9013 14.468C11.6063 14.8213 11.6547 15.3471 12.008 15.6413C12.3622 15.9363 12.8872 15.888 13.1822 15.5346L17.3488 10.5346C17.3813 10.4955 17.3972 10.4496 17.4213 10.4063C17.4413 10.3713 17.4655 10.3413 17.4805 10.303C17.518 10.2071 17.5405 10.1063 17.5405 10.0046C17.5405 10.0038 17.5413 10.0021 17.5413 10.0013C17.5413 10.0005 17.5405 9.9988 17.5405 9.99797C17.5405 9.8963 17.518 9.79547 17.4805 9.69964C17.4655 9.6613 17.4413 9.6313 17.4213 9.5963C17.3972 9.55297 17.3813 9.50714 17.3488 9.46797L13.1822 4.46797C13.0163 4.27047 12.7797 4.16797 12.5413 4.16797C12.353 4.16797 12.1638 4.2313 12.008 4.3613C11.6547 4.65547 11.6063 5.1813 11.9013 5.53464L14.9288 9.16797H5.04134C4.58134 9.16797 4.20801 9.5413 4.20801 10.0013C4.20801 10.4613 4.58134 10.8346 5.04134 10.8346" fill="white"/>
</mask>
<g mask="url(#mask0_607_110)">
</g>
</svg>
