<svg width="110" height="24" viewBox="0 0 110 24" fill="none" xmlns="http://www.w3.org/2000/svg">
<path fill-rule="evenodd" clip-rule="evenodd" d="M76.2639 0.0583496H79.2209V2.88516H76.2639V0.0583496ZM0.343977 0.0584453H15.3013V2.88526H9.41203V18.8205H6.184V2.88526H0.319336L0.343977 0.0584453ZM14.6604 5.23669H17.4202V7.86338H17.4695C17.5681 7.48814 17.7406 7.13791 17.987 6.78769C18.2334 6.43746 18.5291 6.11225 18.8987 5.83708C19.2437 5.53688 19.638 5.31174 20.0815 5.13663C20.5004 4.96151 20.944 4.86145 21.3875 4.86145C21.6035 4.86145 21.7808 4.87125 21.9134 4.87858C21.9927 4.88297 22.056 4.88647 22.1021 4.88647C22.2253 4.91148 22.3732 4.9365 22.4964 4.9365V7.81334C22.2993 7.76331 22.0775 7.7383 21.8557 7.71328L21.7953 7.70642C21.5976 7.68389 21.4165 7.66325 21.215 7.66325C20.7222 7.66325 20.254 7.76331 19.8105 7.96344C19.3669 8.16357 18.9973 8.46376 18.6523 8.839C18.332 9.23926 18.0609 9.71456 17.8638 10.2899C17.6667 10.8653 17.5681 11.5407 17.5681 12.2912V18.7454H14.6111L14.6604 5.23669ZM33.1413 18.8203H36.049H36.0737V5.23657H33.1167V13.1166C33.1167 13.642 33.0674 14.1423 32.9442 14.5926C32.821 15.0429 32.6485 15.4431 32.3775 15.7683C32.131 16.0935 31.7861 16.3437 31.3672 16.5438C30.9483 16.744 30.4308 16.844 29.8148 16.844C29.0016 16.844 28.3609 16.5939 27.9174 16.0935C27.4492 15.6182 27.2274 14.7677 27.2274 13.5669V5.23657H24.2704V13.8671C24.2704 15.6432 24.6647 16.9941 25.4532 17.8697C26.2417 18.7703 27.5231 19.1955 29.2726 19.1955C30.0119 19.1955 30.7511 18.9954 31.4657 18.5701C32.1803 18.1449 32.7224 17.6195 33.0921 16.9191H33.1413V18.8203ZM41.0759 14.4675C41.1744 15.3431 41.4948 15.9434 42.0615 16.3187C42.6283 16.6689 43.3182 16.844 44.1068 16.844C44.3778 16.844 44.6981 16.819 45.0431 16.769C45.3881 16.7189 45.7331 16.6439 46.0288 16.5188C46.3491 16.3937 46.5955 16.2186 46.7927 15.9685C46.9898 15.7183 47.0884 15.4181 47.0637 15.0429C47.0391 14.6676 46.9159 14.3424 46.6448 14.0923C46.3738 13.8421 46.0534 13.667 45.6592 13.4919C45.2649 13.3418 44.7967 13.2167 44.2792 13.1166C43.8582 13.0352 43.4372 12.9372 43.003 12.8362C42.9035 12.813 42.8033 12.7897 42.7022 12.7664C42.1601 12.6413 41.618 12.4912 41.1005 12.3161C40.583 12.141 40.1395 11.9159 39.7206 11.5906C39.3263 11.2905 38.9813 10.9152 38.7596 10.4399C38.5131 9.9646 38.3899 9.41425 38.3899 8.7138C38.3899 7.96332 38.5624 7.36293 38.932 6.86261C39.277 6.36229 39.7452 5.96203 40.2873 5.66184C40.8294 5.36165 41.4455 5.1365 42.1108 5.01142C42.7761 4.88634 43.4168 4.83631 44.0082 4.83631C44.6981 4.83631 45.3635 4.91136 45.9795 5.06146C46.5955 5.21155 47.1869 5.4367 47.6798 5.78692C48.1972 6.11213 48.6161 6.56242 48.9365 7.08776C49.2815 7.61309 49.4786 8.26351 49.5772 9.01399H46.497C46.3491 8.28853 46.0288 7.81322 45.536 7.56306C45.0185 7.3129 44.4517 7.18782 43.7864 7.18782C43.5893 7.18782 43.3182 7.21284 43.0472 7.23785C42.7515 7.28788 42.5051 7.33792 42.234 7.43798C41.9876 7.53804 41.7658 7.68814 41.5933 7.86325C41.4208 8.03837 41.3223 8.28853 41.3223 8.58872C41.3223 8.96396 41.4455 9.23914 41.6919 9.46428C41.9383 9.68943 42.2586 9.86454 42.6775 10.0396C43.0718 10.1897 43.54 10.3148 44.0575 10.4149C44.5749 10.5149 45.117 10.64 45.6591 10.7651L45.6592 10.7651C46.2013 10.8902 46.7187 11.0403 47.2362 11.2154C47.7537 11.3905 48.2219 11.6157 48.6161 11.9409C49.0104 12.2411 49.3554 12.6163 49.6018 13.0666C49.8482 13.5169 49.9714 14.0923 49.9714 14.7427C49.9714 15.5432 49.7989 16.2186 49.4293 16.794C49.0597 17.3443 48.5915 17.8196 48.0247 18.1699C47.458 18.5201 46.7927 18.7703 46.1027 18.9454C45.3881 19.0955 44.6981 19.1955 44.0082 19.1955C43.1704 19.1955 42.3819 19.0955 41.6672 18.8953C40.9526 18.6952 40.312 18.395 39.7945 18.0198C39.277 17.6195 38.8581 17.1442 38.5624 16.5438C38.2667 15.9685 38.0942 15.268 38.0696 14.4425H41.0512V14.4675H41.0759ZM53.0524 5.23662H50.8101V7.46305H53.0524V15.4682C53.0771 16.0185 53.1264 16.5439 53.2249 16.9692C53.3235 17.3944 53.496 17.7447 53.767 18.0448C54.0381 18.32 54.4077 18.5452 54.8759 18.6953C55.3441 18.8454 55.9601 18.9204 56.7487 18.9204C57.0936 18.9204 57.3893 18.9204 57.7097 18.8704C58.03 18.8454 58.3504 18.8203 58.6707 18.7703V16.4438C58.4931 16.4889 58.2954 16.5137 58.1139 16.5364L58.0547 16.5439C57.8575 16.5689 57.6358 16.5689 57.4386 16.5689C57.0936 16.5689 56.8472 16.5189 56.6501 16.4438C56.4776 16.3688 56.3298 16.2437 56.2312 16.0936C56.1573 15.9435 56.0833 15.7434 56.0587 15.5182C56.0341 15.2681 56.0094 15.0179 56.0094 14.6927V7.43804H58.6707V5.21161H56.0094V1.13399H53.0524V5.23662ZM60.7652 5.23669H63.525V7.08788H63.5743C63.9932 6.28737 64.56 5.73701 65.2992 5.38679C66.0385 5.03656 66.827 4.86145 67.7141 4.86145C68.7737 4.86145 69.6854 5.03656 70.4739 5.43682C71.2624 5.81206 71.9031 6.31238 72.4206 6.98781C72.9381 7.63823 73.3323 8.41373 73.5787 9.28929C73.8252 10.1649 73.973 11.1155 73.973 12.0911C73.973 13.0167 73.8498 13.8922 73.628 14.7428C73.3816 15.5933 73.0366 16.3688 72.5684 17.0193C72.1003 17.6697 71.5089 18.195 70.7696 18.5953C70.0304 18.9955 69.1926 19.1956 68.2069 19.1956C67.788 19.1956 67.3445 19.1456 66.9256 19.0706C66.5066 18.9955 66.0877 18.8704 65.6935 18.6953C65.2992 18.5202 64.9296 18.2951 64.6093 18.0199C64.2643 17.7447 63.9932 17.4195 63.7714 17.0693H63.7222V23.8486H60.7652V5.23669ZM70.8179 10.2649C70.9904 10.8403 71.0644 11.4407 71.0644 12.0411C71.0644 12.6415 70.9904 13.2168 70.8672 13.8172C70.744 14.3926 70.5222 14.8929 70.2265 15.3432C69.9062 15.7685 69.5366 16.1437 69.0684 16.4189C68.6002 16.6941 68.0581 16.8442 67.3681 16.8442C66.7521 16.8442 66.2346 16.7191 65.7664 16.4689C65.2983 16.2187 64.904 15.8935 64.5837 15.4683C64.2387 15.043 64.0169 14.5427 63.8444 13.9673C63.6719 13.3919 63.598 12.7665 63.598 12.0661C63.598 10.6152 63.9183 9.4394 64.5344 8.56384C65.1751 7.68827 66.1114 7.263 67.3435 7.263C67.9349 7.263 68.477 7.38808 68.9452 7.66326C69.3887 7.93843 69.783 8.28866 70.1033 8.73895C70.4237 9.18924 70.6701 9.68956 70.8179 10.2649ZM79.2209 5.23657H76.2639V18.8203H79.2209V5.23657ZM81.8579 0.0583496H84.8149V18.8204H81.8579V0.0583496ZM90.9747 18.6453C91.8125 19.0205 92.7735 19.1957 93.8331 19.1957C94.9173 19.1957 95.8537 18.9955 96.6915 18.6453C97.5293 18.2951 98.2439 17.7948 98.8107 17.1693C99.3774 16.5189 99.7963 15.7684 100.117 14.8929C100.437 14.0173 100.585 13.0667 100.585 12.016C100.585 10.9904 100.412 10.0398 100.117 9.16421C99.821 8.28865 99.3774 7.51315 98.8107 6.88775C98.2193 6.26235 97.5293 5.76203 96.6915 5.4118C95.8537 5.03656 94.8927 4.86145 93.8331 4.86145C92.7735 4.86145 91.8125 5.06158 90.9747 5.4118C90.1369 5.76203 89.4223 6.26235 88.8555 6.88775C88.2888 7.53817 87.8452 8.28865 87.5495 9.16421C87.2292 10.0398 87.0813 10.9904 87.0813 12.016C87.0813 13.0417 87.2538 14.0173 87.5495 14.8929C87.8452 15.7684 88.2888 16.5439 88.8555 17.1693C89.4469 17.7948 90.1369 18.2701 90.9747 18.6453ZM93.8341 16.8191C94.4748 16.8191 95.0662 16.669 95.5344 16.3939C96.0272 16.1187 96.3968 15.7434 96.7172 15.2932C97.0375 14.8429 97.2593 14.3175 97.4071 13.7672C97.555 13.1918 97.6289 12.6164 97.6289 12.0161C97.6289 11.4407 97.555 10.8653 97.4071 10.2899C97.2593 9.71457 97.0375 9.21425 96.7172 8.76396C96.3968 8.31367 96.0026 7.96345 95.5344 7.68827C95.0416 7.4131 94.4748 7.263 93.8341 7.263C93.1935 7.263 92.6021 7.4131 92.1339 7.68827C91.641 7.96345 91.2714 8.33869 90.9511 8.76396C90.6307 9.21425 90.409 9.71457 90.2611 10.2899C90.1133 10.8653 90.0394 11.4407 90.0394 12.0161C90.0394 12.6164 90.1133 13.1918 90.2611 13.7672C90.409 14.3425 90.6307 14.8429 90.9511 15.2932C91.2714 15.7434 91.6657 16.1187 92.1339 16.3939C92.6267 16.6941 93.1935 16.8191 93.8341 16.8191ZM103.715 5.23662H101.473V7.46305H103.715V15.4682C103.74 16.0185 103.789 16.5439 103.887 16.9692C103.986 17.3944 104.158 17.7447 104.43 18.0448C104.701 18.32 105.07 18.5452 105.538 18.6953C106.007 18.8454 106.623 18.9204 107.411 18.9204C107.756 18.9204 108.052 18.9204 108.372 18.8704C108.693 18.8454 109.013 18.8203 109.333 18.7703V16.4438C109.156 16.4889 108.958 16.5137 108.776 16.5364C108.756 16.5389 108.737 16.5414 108.717 16.5439C108.52 16.5689 108.298 16.5689 108.101 16.5689C107.756 16.5689 107.51 16.5189 107.313 16.4438C107.14 16.3688 106.992 16.2437 106.894 16.0936C106.82 15.9435 106.746 15.7434 106.721 15.5182C106.697 15.2681 106.672 15.0179 106.672 14.6927V7.43804H109.333V5.21161H106.672V1.13399H103.715V5.23662Z" fill="white"/>
</svg>
