<svg width="36" height="35" viewBox="0 0 36 35" fill="none" xmlns="http://www.w3.org/2000/svg">
<path d="M9.61891 23.6701C16.137 26.2139 21.6839 26.7093 27.9696 22.75C27.9236 22.8191 26.6802 24.6611 23.4104 25.6052C24.1012 26.5493 25.0453 27.6315 25.0453 27.6315C27.1407 27.6315 29.1901 27.0328 30.963 25.8815C32.3446 24.9604 33.1275 23.3716 32.9663 21.7138C32.69 18.8815 32.0222 16.1183 30.9861 13.4704C29.6736 10.0164 26.519 7.62168 22.8578 7.27626C22.5354 7.25323 22.3052 7.25323 22.167 7.25323L21.7986 7.62162C26.0124 8.819 28.1079 10.6841 28.1539 10.7532C21.6835 7.48346 14.0388 7.43746 7.52226 10.6151C7.52226 10.6151 9.59465 8.56573 14.1768 7.48346L13.9005 7.20715C13.417 7.20715 12.9564 7.25323 12.4729 7.32227C9.08804 7.89792 6.25584 10.2236 5.03542 13.4242C3.97619 16.1874 3.28542 19.0887 3.03215 22.0361C2.89399 23.6019 3.63084 25.1447 4.9203 26.0427C6.62423 27.171 8.65054 27.7697 10.6999 27.7697C10.6999 27.7697 11.5288 26.6874 12.3578 25.7203C9.24923 24.7992 7.9828 22.9572 7.95976 22.888L8.54478 23.1868C8.89451 23.3655 9.25306 23.5273 9.61891 23.6701ZM13.2328 21.6677C11.7361 21.6216 10.5617 20.3552 10.6078 18.8354C10.6539 17.4078 11.8052 16.2565 13.2328 16.2104C14.7295 16.2565 15.9039 17.5229 15.8578 19.0427C15.7887 20.4704 14.6604 21.6217 13.2328 21.6677ZM22.6275 21.6677C21.1308 21.6216 19.9564 20.3552 20.0025 18.8354C20.0486 17.4078 21.1999 16.2565 22.6275 16.2104C24.1242 16.2565 25.2986 17.5229 25.2525 19.0427C25.2065 20.4704 24.0551 21.6217 22.6275 21.6677Z" fill="white"/>
</svg>
