<svg width="107" height="18" viewBox="0 0 107 18" fill="none" xmlns="http://www.w3.org/2000/svg">
<path d="M8.41699 1.02197C8.55155 0.756348 8.74779 0.579265 9.00571 0.490723C9.26362 0.402181 9.52153 0.402181 9.77945 0.490723C10.0374 0.579265 10.2336 0.756348 10.3682 1.02197L12.5548 5.40479L17.4664 6.10205C17.758 6.14632 17.9878 6.27913 18.156 6.50049C18.3242 6.72184 18.4027 6.96533 18.3915 7.23096C18.3803 7.49658 18.2738 7.729 18.0719 7.92822L14.506 11.3481L15.347 16.1958C15.3919 16.4614 15.3414 16.7104 15.1956 16.9429C15.0499 17.1753 14.8424 17.3247 14.5733 17.3911C14.3042 17.4575 14.0462 17.4243 13.7995 17.2915L9.39258 15.0337L4.98562 17.2915C4.73892 17.4243 4.481 17.4575 4.21187 17.3911C3.94275 17.3247 3.7353 17.1753 3.58952 16.9429C3.44374 16.7104 3.39328 16.4614 3.43813 16.1958L4.27916 11.3481L0.713218 7.92822C0.511373 7.729 0.404843 7.49658 0.393629 7.23096C0.382416 6.96533 0.460911 6.72184 0.629116 6.50049C0.797321 6.27913 1.0272 6.14632 1.31875 6.10205L6.23033 5.40479L8.41699 1.02197Z" fill="#FF8B00"/>
<path d="M30.417 1.02197C30.5516 0.756348 30.7478 0.579265 31.0057 0.490723C31.2636 0.402181 31.5215 0.402181 31.7794 0.490723C32.0374 0.579265 32.2336 0.756348 32.3682 1.02197L34.5548 5.40479L39.4664 6.10205C39.758 6.14632 39.9878 6.27913 40.156 6.50049C40.3242 6.72184 40.4027 6.96533 40.3915 7.23096C40.3803 7.49658 40.2738 7.729 40.0719 7.92822L36.506 11.3481L37.347 16.1958C37.3919 16.4614 37.3414 16.7104 37.1956 16.9429C37.0499 17.1753 36.8424 17.3247 36.5733 17.3911C36.3042 17.4575 36.0462 17.4243 35.7995 17.2915L31.3926 15.0337L26.9856 17.2915C26.7389 17.4243 26.481 17.4575 26.2119 17.3911C25.9427 17.3247 25.7353 17.1753 25.5895 16.9429C25.4437 16.7104 25.3933 16.4614 25.4381 16.1958L26.2792 11.3481L22.7132 7.92822C22.5114 7.729 22.4048 7.49658 22.3936 7.23096C22.3824 6.96533 22.4609 6.72184 22.6291 6.50049C22.7973 6.27913 23.0272 6.14632 23.3188 6.10205L28.2303 5.40479L30.417 1.02197Z" fill="#FF8B00"/>
<path d="M52.417 1.02197C52.5516 0.756348 52.7478 0.579265 53.0057 0.490723C53.2636 0.402181 53.5215 0.402181 53.7794 0.490723C54.0374 0.579265 54.2336 0.756348 54.3682 1.02197L56.5548 5.40479L61.4664 6.10205C61.758 6.14632 61.9878 6.27913 62.156 6.50049C62.3242 6.72184 62.4027 6.96533 62.3915 7.23096C62.3803 7.49658 62.2738 7.729 62.0719 7.92822L58.506 11.3481L59.347 16.1958C59.3919 16.4614 59.3414 16.7104 59.1956 16.9429C59.0499 17.1753 58.8424 17.3247 58.5733 17.3911C58.3042 17.4575 58.0462 17.4243 57.7995 17.2915L53.3926 15.0337L48.9856 17.2915C48.7389 17.4243 48.481 17.4575 48.2119 17.3911C47.9427 17.3247 47.7353 17.1753 47.5895 16.9429C47.4437 16.7104 47.3933 16.4614 47.4381 16.1958L48.2792 11.3481L44.7132 7.92822C44.5114 7.729 44.4048 7.49658 44.3936 7.23096C44.3824 6.96533 44.4609 6.72184 44.6291 6.50049C44.7973 6.27913 45.0272 6.14632 45.3188 6.10205L50.2303 5.40479L52.417 1.02197Z" fill="#FF8B00"/>
<path d="M74.417 1.02197C74.5516 0.756348 74.7478 0.579265 75.0057 0.490723C75.2636 0.402181 75.5215 0.402181 75.7794 0.490723C76.0374 0.579265 76.2336 0.756348 76.3682 1.02197L78.5548 5.40479L83.4664 6.10205C83.758 6.14632 83.9878 6.27913 84.156 6.50049C84.3242 6.72184 84.4027 6.96533 84.3915 7.23096C84.3803 7.49658 84.2738 7.729 84.0719 7.92822L80.506 11.3481L81.347 16.1958C81.3919 16.4614 81.3414 16.7104 81.1956 16.9429C81.0499 17.1753 80.8424 17.3247 80.5733 17.3911C80.3042 17.4575 80.0462 17.4243 79.7995 17.2915L75.3926 15.0337L70.9856 17.2915C70.7389 17.4243 70.481 17.4575 70.2119 17.3911C69.9427 17.3247 69.7353 17.1753 69.5895 16.9429C69.4437 16.7104 69.3933 16.4614 69.4381 16.1958L70.2792 11.3481L66.7132 7.92822C66.5114 7.729 66.4048 7.49658 66.3936 7.23096C66.3824 6.96533 66.4609 6.72184 66.6291 6.50049C66.7973 6.27913 67.0272 6.14632 67.3188 6.10205L72.2303 5.40479L74.417 1.02197Z" fill="#FF8B00"/>
<path d="M96.417 1.02197C96.5516 0.756348 96.7478 0.579265 97.0057 0.490723C97.2636 0.402181 97.5215 0.402181 97.7794 0.490723C98.0374 0.579265 98.2336 0.756348 98.3682 1.02197L100.555 5.40479L105.466 6.10205C105.758 6.14632 105.988 6.27913 106.156 6.50049C106.324 6.72184 106.403 6.96533 106.392 7.23096C106.38 7.49658 106.274 7.729 106.072 7.92822L102.506 11.3481L103.347 16.1958C103.392 16.4614 103.341 16.7104 103.196 16.9429C103.05 17.1753 102.842 17.3247 102.573 17.3911C102.304 17.4575 102.046 17.4243 101.8 17.2915L97.3926 15.0337L92.9856 17.2915C92.7389 17.4243 92.481 17.4575 92.2119 17.3911C91.9427 17.3247 91.7353 17.1753 91.5895 16.9429C91.4437 16.7104 91.3933 16.4614 91.4381 16.1958L92.2792 11.3481L88.7132 7.92822C88.5114 7.729 88.4048 7.49658 88.3936 7.23096C88.3824 6.96533 88.4609 6.72184 88.6291 6.50049C88.7973 6.27913 89.0272 6.14632 89.3188 6.10205L94.2303 5.40479L96.417 1.02197Z" fill="#FF8B00"/>
</svg>
