<svg width="194" height="48" viewBox="0 0 194 48" fill="none" xmlns="http://www.w3.org/2000/svg">
<g id="trustpilot-logo">
<path id="Shape" fill-rule="evenodd" clip-rule="evenodd" d="M51.2868 16.9296H70.6785V20.5944H63.0432V41.2539H58.8582V20.5944H51.2549L51.2868 16.9296ZM69.8479 23.6431H73.4259V27.0485H73.4898C73.6176 26.562 73.8412 26.1079 74.1607 25.6539C74.4802 25.1998 74.8635 24.7782 75.3427 24.4215C75.79 24.0323 76.3011 23.7404 76.8762 23.5133C77.4193 23.2863 77.9943 23.1566 78.5694 23.1566C78.8493 23.1566 79.0792 23.1693 79.2512 23.1788C79.354 23.1845 79.4361 23.189 79.4958 23.189C79.6555 23.2215 79.8472 23.2539 80.007 23.2539V26.9836C79.7514 26.9188 79.4639 26.8863 79.1763 26.8539L79.098 26.845C78.8417 26.8158 78.6069 26.789 78.3457 26.789C77.7068 26.789 77.0998 26.9188 76.5248 27.1782C75.9497 27.4377 75.4705 27.8269 75.0233 28.3133C74.608 28.8323 74.2565 29.4485 74.001 30.1944C73.7454 30.9404 73.6176 31.8161 73.6176 32.789V41.1566H69.784L69.8479 23.6431ZM93.808 41.2539H97.5777H97.6096V23.6431H93.776V33.8593C93.776 34.5404 93.7121 35.189 93.5524 35.7728C93.3927 36.3566 93.169 36.8755 92.8176 37.2971C92.4981 37.7188 92.0509 38.0431 91.5078 38.3025C90.9647 38.562 90.2938 38.6917 89.4951 38.6917C88.4409 38.6917 87.6103 38.3674 87.0353 37.7188C86.4283 37.1025 86.1407 35.9998 86.1407 34.4431V23.6431H82.3071V34.8323C82.3071 37.135 82.8183 38.8863 83.8406 40.0215C84.8629 41.189 86.5241 41.7404 88.7923 41.7404C89.7507 41.7404 90.7091 41.4809 91.6356 40.9296C92.562 40.3782 93.2649 39.6971 93.7441 38.789H93.808V41.2539ZM104.095 35.6106C104.223 36.7458 104.638 37.5242 105.373 38.0106C106.107 38.4647 107.002 38.6917 108.024 38.6917C108.376 38.6917 108.791 38.6593 109.238 38.5944C109.685 38.5296 110.133 38.4323 110.516 38.2701C110.931 38.1079 111.251 37.8809 111.506 37.5566C111.762 37.2323 111.89 36.8431 111.858 36.3566C111.826 35.8701 111.666 35.4485 111.315 35.1242C110.963 34.7998 110.548 34.5728 110.037 34.3458C109.526 34.1512 108.919 33.989 108.248 33.8593C107.702 33.7538 107.156 33.6268 106.593 33.4958L106.593 33.4957C106.464 33.4657 106.334 33.4355 106.203 33.4052C105.5 33.2431 104.798 33.0485 104.127 32.8215C103.456 32.5944 102.881 32.3025 102.338 31.8809C101.827 31.4917 101.379 31.0052 101.092 30.389C100.772 29.7728 100.613 29.0593 100.613 28.1512C100.613 27.1782 100.836 26.3998 101.315 25.7512C101.763 25.1025 102.37 24.5836 103.073 24.1944C103.775 23.8052 104.574 23.5133 105.437 23.3512C106.299 23.189 107.13 23.1242 107.896 23.1242C108.791 23.1242 109.654 23.2215 110.452 23.4161C111.251 23.6106 112.018 23.9025 112.657 24.3566C113.327 24.7782 113.871 25.362 114.286 26.0431C114.733 26.7242 114.989 27.5674 115.116 28.5404H111.123C110.931 27.5998 110.516 26.9836 109.877 26.6593C109.206 26.335 108.472 26.1728 107.609 26.1728C107.353 26.1728 107.002 26.2052 106.651 26.2377L106.651 26.2377C106.267 26.3025 105.948 26.3674 105.596 26.4971C105.277 26.6269 104.989 26.8215 104.766 27.0485C104.542 27.2755 104.414 27.5998 104.414 27.989C104.414 28.4755 104.574 28.8323 104.893 29.1242C105.213 29.4161 105.628 29.6431 106.171 29.8701C106.682 30.0647 107.289 30.2269 107.96 30.3566C108.631 30.4863 109.334 30.6485 110.037 30.8106C110.74 30.9728 111.411 31.1674 112.082 31.3944C112.752 31.6215 113.359 31.9133 113.871 32.335C114.382 32.7242 114.829 33.2106 115.148 33.7944C115.468 34.3782 115.628 35.1242 115.628 35.9674C115.628 37.0052 115.404 37.8809 114.925 38.6269C114.446 39.3404 113.839 39.9566 113.104 40.4106C112.369 40.8647 111.506 41.189 110.612 41.4161C109.685 41.6106 108.791 41.7404 107.896 41.7404C106.81 41.7404 105.788 41.6106 104.862 41.3512C103.935 41.0917 103.104 40.7025 102.434 40.2161C101.763 39.6971 101.22 39.0809 100.836 38.3025C100.453 37.5566 100.229 36.6485 100.197 35.5782H104.063V35.6106H104.095ZM119.621 23.6431H116.714V26.5296H119.621V36.9079C119.653 37.6215 119.717 38.3025 119.845 38.8539C119.972 39.4052 120.196 39.8593 120.547 40.2485C120.899 40.6052 121.378 40.8971 121.985 41.0917C122.592 41.2863 123.391 41.3836 124.413 41.3836C124.86 41.3836 125.244 41.3836 125.659 41.3188C126.074 41.2863 126.489 41.2539 126.905 41.189V38.1728C126.675 38.2312 126.418 38.2634 126.183 38.2929L126.106 38.3025C125.851 38.335 125.563 38.335 125.307 38.335C124.86 38.335 124.541 38.2701 124.285 38.1728C124.062 38.0755 123.87 37.9133 123.742 37.7188C123.646 37.5242 123.55 37.2647 123.518 36.9728C123.486 36.6485 123.455 36.3242 123.455 35.9025V26.4971H126.905V23.6106H123.455V18.3242H119.621V23.6431ZM129.62 23.6431H133.198V26.0431H133.262C133.805 25.0052 134.54 24.2917 135.498 23.8377C136.457 23.3836 137.479 23.1566 138.629 23.1566C140.003 23.1566 141.185 23.3836 142.207 23.9025C143.23 24.389 144.06 25.0377 144.731 25.9133C145.402 26.7566 145.913 27.762 146.233 28.8971C146.552 30.0323 146.744 31.2647 146.744 32.5296C146.744 33.7296 146.584 34.8647 146.296 35.9674C145.977 37.0701 145.53 38.0755 144.923 38.9188C144.316 39.762 143.549 40.4431 142.591 40.962C141.632 41.4809 140.546 41.7404 139.268 41.7404C138.725 41.7404 138.15 41.6755 137.607 41.5782C137.064 41.4809 136.521 41.3188 136.01 41.0917C135.498 40.8647 135.019 40.5728 134.604 40.2161C134.157 39.8593 133.805 39.4377 133.518 38.9836H133.454V47.7728H129.62V23.6431ZM142.655 30.162C142.878 30.9079 142.974 31.6863 142.974 32.4647C142.974 33.2431 142.878 33.989 142.718 34.7674C142.559 35.5133 142.271 36.162 141.888 36.7458C141.473 37.2971 140.993 37.7836 140.386 38.1404C139.779 38.4971 139.077 38.6917 138.182 38.6917C137.383 38.6917 136.712 38.5296 136.105 38.2052C135.498 37.8809 134.987 37.4593 134.572 36.9079C134.125 36.3566 133.837 35.7079 133.614 34.962C133.39 34.2161 133.294 33.4052 133.294 32.4971C133.294 30.6161 133.709 29.0917 134.508 27.9566C135.339 26.8215 136.553 26.2701 138.15 26.2701C138.917 26.2701 139.62 26.4323 140.227 26.789C140.802 27.1458 141.313 27.5998 141.728 28.1836C142.143 28.7674 142.463 29.4161 142.655 30.162ZM149.715 16.9296H153.548V20.5944H149.715V16.9296ZM153.548 23.6431H149.715V41.2539H153.548V23.6431ZM156.967 16.9296H160.8V41.2539H156.967V16.9296ZM168.787 41.0269C169.873 41.5133 171.119 41.7404 172.493 41.7404C173.898 41.7404 175.112 41.4809 176.199 41.0269C177.285 40.5728 178.211 39.9242 178.946 39.1133C179.681 38.2701 180.224 37.2971 180.639 36.162C181.055 35.0269 181.246 33.7944 181.246 32.4323C181.246 31.1025 181.023 29.8701 180.639 28.735C180.256 27.5998 179.681 26.5944 178.946 25.7836C178.179 24.9728 177.285 24.3242 176.199 23.8701C175.112 23.3836 173.867 23.1566 172.493 23.1566C171.119 23.1566 169.873 23.4161 168.787 23.8701C167.701 24.3242 166.774 24.9728 166.04 25.7836C165.305 26.6269 164.73 27.5998 164.346 28.735C163.931 29.8701 163.739 31.1025 163.739 32.4323C163.739 33.762 163.963 35.0269 164.346 36.162C164.73 37.2971 165.305 38.3025 166.04 39.1133C166.806 39.9242 167.701 40.5404 168.787 41.0269ZM172.493 38.6593C173.323 38.6593 174.09 38.4647 174.697 38.1079C175.336 37.7512 175.815 37.2647 176.231 36.6809C176.646 36.0971 176.933 35.4161 177.125 34.7025C177.317 33.9566 177.413 33.2106 177.413 32.4323C177.413 31.6863 177.317 30.9404 177.125 30.1944C176.933 29.4485 176.646 28.7998 176.231 28.2161C175.815 27.6323 175.304 27.1782 174.697 26.8215C174.058 26.4647 173.323 26.2701 172.493 26.2701C171.662 26.2701 170.895 26.4647 170.288 26.8215C169.65 27.1782 169.17 27.6647 168.755 28.2161C168.34 28.7998 168.052 29.4485 167.861 30.1944C167.669 30.9404 167.573 31.6863 167.573 32.4323C167.573 33.2106 167.669 33.9566 167.861 34.7025C168.052 35.4485 168.34 36.0971 168.755 36.6809C169.17 37.2647 169.682 37.7512 170.288 38.1079C170.927 38.4971 171.662 38.6593 172.493 38.6593ZM185.303 23.6431H182.396V26.5296H185.303V36.9079C185.335 37.6215 185.399 38.3025 185.527 38.8539C185.655 39.4052 185.879 39.8593 186.23 40.2485C186.581 40.6052 187.061 40.8971 187.668 41.0917C188.275 41.2863 189.073 41.3836 190.095 41.3836C190.543 41.3836 190.926 41.3836 191.341 41.3188C191.757 41.2863 192.172 41.2539 192.587 41.189V38.1728C192.357 38.2312 192.101 38.2634 191.865 38.2929C191.84 38.2961 191.814 38.2993 191.789 38.3025C191.533 38.335 191.246 38.335 190.99 38.335C190.543 38.335 190.223 38.2701 189.968 38.1728C189.744 38.0755 189.552 37.9133 189.425 37.7188C189.329 37.5242 189.233 37.2647 189.201 36.9728L189.201 36.9725C189.169 36.6483 189.137 36.324 189.137 35.9025V26.4971H192.587V23.6106H189.137V18.3242H185.303V23.6431Z" fill="white"/>
<path id="Path" d="M46.8157 16.9297H29.2769L23.8779 0L18.447 16.9297L0.908203 16.8973L15.0926 27.373L9.66161 44.3027L23.846 33.827L38.0303 44.3027L32.6313 27.373L46.8157 16.9297Z" fill="#00B67A"/>
<path id="Path_2" d="M33.8443 31.1998L32.6304 27.3728L23.877 33.8269L33.8443 31.1998Z" fill="#005128"/>
</g>
</svg>
