<svg id="e22df4ff-19d5-49d0-b3f8-5a974b5b5d04" data-name="Layer 2" xmlns="http://www.w3.org/2000/svg" viewBox="0 0 512 512"><path d="M256,39A217,217,0,0,0,102.53,409.47,217,217,0,1,0,409.47,102.53,215.59,215.59,0,0,0,256,39ZM256,460C143.49,460,52,368.51,52,256S143.49,52,256,52s204,91.53,204,204S368.51,460,256,460Z" fill="#78dfff"/><path d="M292.63,210.73c1.33,0,2.66-1.21,2.66-5.28s-1.33-5.27-2.66-5.27-2.67,1.21-2.67,5.27S291.29,210.73,292.63,210.73Z" fill="#78dfff"/><path d="M217.42,226.2c2.79,0,4.85-2.55,4.85-10.74s-2.06-10.73-4.85-10.73-4.85,2.54-4.85,10.73S214.63,226.2,217.42,226.2Z" fill="#78dfff"/><path d="M150.73,391,256,328.81,361.27,391V121H150.73ZM335,225.47c0,7.58-4.85,11.83-11.28,11.83s-11.28-4.25-11.28-11.83,4.85-11.83,11.28-11.83S335,218,335,225.47Zm-7.21-31.24-29,42.46H288.56l29-42.46Zm-35.18-.6c6.43,0,11.28,4.3,11.28,11.82s-4.85,11.83-11.28,11.83-11.29-4.24-11.29-11.83S286.2,193.63,292.63,193.63Zm-33.24-.37c11.22,0,19.23,8.13,19.23,22.2s-8,22.2-19.23,22.2-19.23-8.13-19.23-22.2S248.17,193.26,259.39,193.26Zm-42,0c11.22,0,19.23,8.13,19.23,22.2s-8,22.2-19.23,22.2-19.23-8.13-19.23-22.2S206.2,193.26,217.42,193.26Zm-46,1H193v42.46H178.66V205h-7.28Z" fill="#78dfff"/><path d="M259.39,226.2c2.79,0,4.85-2.55,4.85-10.74s-2.06-10.73-4.85-10.73-4.85,2.54-4.85,10.73S256.6,226.2,259.39,226.2Z" fill="#78dfff"/><path d="M321.07,225.47c0,4.06,1.34,5.28,2.67,5.28s2.67-1.22,2.67-5.28-1.33-5.28-2.67-5.28S321.07,221.41,321.07,225.47Z" fill="#78dfff"/></svg>