<svg id="fb4e35c6-a07b-46fc-b3d3-e3a38d1db201" data-name="Layer 2" xmlns="http://www.w3.org/2000/svg" viewBox="0 0 512 512"><path d="M256,39A217,217,0,0,0,102.53,409.47,217,217,0,1,0,409.47,102.53,215.6,215.6,0,0,0,256,39Zm0,421.1c-112.51,0-204-91.54-204-204S143.49,52,256,52,460,143.49,460,256,368.51,460.05,256,460.05Z" fill="#78dfff"/><path d="M256,182a28,28,0,0,1,28,28h36a64.11,64.11,0,0,0-46-61.42v-19.1H238v19.1A64,64,0,0,0,256,274a28,28,0,1,1-28,28H192a64.11,64.11,0,0,0,46,61.42v19.1h36v-19.1A64,64,0,0,0,256,238a28,28,0,1,1,0-56Z" fill="#78dfff"/></svg>