<svg id="e5a897e3-7354-44f0-ba55-4b822ab2bdb9" data-name="Layer 2" xmlns="http://www.w3.org/2000/svg" viewBox="0 0 512 512"><path d="M256,473.05A217,217,0,0,0,409.47,102.53,217,217,0,1,0,102.53,409.47,215.6,215.6,0,0,0,256,473.05ZM256,52C368.51,52,460,143.49,460,256S368.51,460.05,256,460.05,52,368.51,52,256,143.49,52,256,52Z" fill="#78dfff"/><path d="M144.78,323.31h17.31a13.55,13.55,0,0,0,13.54-13.55V224.37h-1c1.77-43.67,37.32-78.9,80.79-79.22a81.45,81.45,0,0,1,82.06,79.22h-1.07v90.91a33.44,33.44,0,0,1-32.26,24.8H280.84a26.77,26.77,0,1,0,0,20h23.27a53.48,53.48,0,0,0,50.73-36.77h12.38a27.92,27.92,0,0,0,27.91-27.92V252.28a27.92,27.92,0,0,0-27.91-27.91h-9.75a101.5,101.5,0,0,0-102.24-99.22c-54.41.4-98.87,44.6-100.66,99.22h-9.79a27.92,27.92,0,0,0-27.91,27.91v43.11A27.92,27.92,0,0,0,144.78,323.31Z" fill="#78dfff"/></svg>