<svg id="aeae6aea-7b6f-4373-a64b-c80c5b152aa7" data-name="Layer 2" xmlns="http://www.w3.org/2000/svg" viewBox="0 0 512 512"><path d="M256,133.4A122.6,122.6,0,1,0,378.6,256,122.74,122.74,0,0,0,256,133.4Zm-9.5,60.15a219.73,219.73,0,0,1-28.89-3c1.4-3.37,2.9-6.62,4.52-9.68,7-13.11,15.51-22.08,24.37-25.88Zm0,19V246.5H206a183.43,183.43,0,0,1,5.57-37.8A235.78,235.78,0,0,0,246.5,212.56Zm0,52.94v33.94a235.78,235.78,0,0,0-35,3.86A183.43,183.43,0,0,1,206,265.5Zm0,52.95V357c-8.86-3.8-17.41-12.77-24.37-25.88-1.62-3.06-3.12-6.31-4.52-9.68A219.73,219.73,0,0,1,246.5,318.45Zm19,0a219.73,219.73,0,0,1,28.89,3c-1.4,3.37-2.9,6.62-4.52,9.68-7,13.11-15.51,22.08-24.37,25.88Zm0-19V265.5H306a183.43,183.43,0,0,1-5.57,37.8A235.78,235.78,0,0,0,265.5,299.44Zm0-52.94V212.56a235.78,235.78,0,0,0,35-3.86A183.43,183.43,0,0,1,306,246.5Zm0-52.95V155c8.86,3.8,17.41,12.77,24.37,25.88,1.62,3.06,3.12,6.31,4.52,9.68A219.73,219.73,0,0,1,265.5,193.55Zm36.78-29.1a103.06,103.06,0,0,1,24.31,17.17,140.51,140.51,0,0,1-13.42,4.61A124,124,0,0,0,302.28,164.45ZM198.83,186.23a140.51,140.51,0,0,1-13.42-4.61,103.06,103.06,0,0,1,24.31-17.17A124,124,0,0,0,198.83,186.23ZM193,204.29a202.81,202.81,0,0,0-6.09,42.21H153.85a101.94,101.94,0,0,1,18.5-49.84A150.42,150.42,0,0,0,193,204.29Zm-6.09,61.21A202.81,202.81,0,0,0,193,307.71a150.42,150.42,0,0,0-20.68,7.63,101.94,101.94,0,0,1-18.5-49.84Zm11.89,60.27a124,124,0,0,0,10.89,21.78,103.06,103.06,0,0,1-24.31-17.17A140.51,140.51,0,0,1,198.83,325.77Zm114.34,0a140.51,140.51,0,0,1,13.42,4.61,103.06,103.06,0,0,1-24.31,17.17A124,124,0,0,0,313.17,325.77Zm5.8-18.06a202.81,202.81,0,0,0,6.09-42.21h33.09a101.94,101.94,0,0,1-18.5,49.84A150.42,150.42,0,0,0,319,307.71Zm6.09-61.21A202.81,202.81,0,0,0,319,204.29a150.42,150.42,0,0,0,20.68-7.63,101.94,101.94,0,0,1,18.5,49.84Z" fill="#78dfff"/><path d="M256,39A217,217,0,0,0,102.53,409.47,217,217,0,1,0,409.47,102.53,215.6,215.6,0,0,0,256,39Zm0,421.1c-112.51,0-204-91.54-204-204S143.49,52,256,52,460.05,143.49,460.05,256,368.51,460.05,256,460.05Z" fill="#78dfff"/></svg>