<svg id="a27f58c2-71ff-4e8e-998a-fc0a0d453636" data-name="Layer 2" xmlns="http://www.w3.org/2000/svg" viewBox="0 0 512 512"><path d="M256,39A217,217,0,0,0,102.53,409.47,217,217,0,1,0,409.47,102.53,215.57,215.57,0,0,0,256,39ZM256,460C143.49,460,52,368.51,52,256S143.49,52,256,52s204.05,91.53,204.05,204S368.51,460,256,460Z" fill="#78dfff"/><path d="M293.14,243.88c3.45,0,6.14-2.55,6.14-7.44s-2.69-7.37-6.14-7.37-6.13,2.48-6.13,7.37S289.7,243.88,293.14,243.88Z" fill="#78dfff"/><path d="M183,219.77h-6.82v22.87H183c6.82,0,11.51-4.07,11.51-11.44S189.83,219.77,183,219.77Z" fill="#78dfff"/><path d="M233.08,219.77v22.87h6.82c6.82,0,11.51-4.07,11.51-11.44s-4.69-11.43-11.51-11.43Z" fill="#78dfff"/><path d="M134.85,157.5v59.57C134.85,291.34,182,359,256,391h0c74-32,121.15-99.7,121.15-174V157.5L256,121Zm48.85,97.81H159.93V207.09H183.7c16.12,0,27.21,9.16,27.21,24.11S199.82,255.31,183.7,255.31Zm134.44-25.49c0-7.09,6.62-12.88,19.29-12.88,5.51,0,11.37,1,15.36,3.1l-4.27,10.27a22.27,22.27,0,0,0-10.88-2.76c-4,0-5.1.9-5.1,1.79,0,3.93,21.63-1.17,21.63,13.92,0,6.82-6.41,12.74-19.49,12.74-6.48,0-13.23-1.52-17.09-3.72L321.86,242A27.35,27.35,0,0,0,335,245.39c3.79,0,4.82-.69,4.82-1.79C339.84,239.74,318.14,244.91,318.14,229.82Zm-25-12.88c12.82,0,21.91,8.06,21.91,19.5S306,256,293.14,256s-21.9-8.13-21.9-19.56S280.4,216.94,293.14,216.94ZM267.8,231.2c0,15-11.09,24.11-27.21,24.11H216.83V207.09h23.76C256.71,207.09,267.8,216.25,267.8,231.2Z" fill="#78dfff"/></svg>