<svg width="63" height="73" viewBox="0 0 63 73" fill="none" xmlns="http://www.w3.org/2000/svg">
<path d="M62.4556 18.8922L48.547 27.2871L31.2591 37.7452L0.0270996 18.8922L25.0696 4.48558L31.2591 0.928406L62.4556 18.8922Z" fill="#C4E37B"/>
<path d="M62.4555 18.8922V54.8553L39.5117 68.0524L31.259 72.819V37.7453L48.5469 27.2872L62.4555 18.8922Z" fill="#A15267"/>
<path d="M31.2591 37.7453V72.819L13.0464 62.3254L12.5128 62.0052C12.4061 61.9341 12.2994 61.8985 12.2282 61.8274L7.14145 58.946L0.0270996 54.8553V18.8922L0.133815 18.9634L8.95562 24.2991L31.2591 37.7453Z" fill="#C46B5D"/>
<path d="M0.0270996 29.9906L31.1524 49.6618L31.2591 37.7452L0.169387 18.9633L0.0270996 29.9906Z" fill="#9CB749"/>
<path d="M62.4557 30.204L31.2236 49.7685L31.2592 37.7453L62.4557 18.9278V30.204Z" fill="#C7EF59"/>
<path d="M49.4719 62.3609L50.0055 62.0408C50.1122 61.9696 50.2189 61.9341 50.2901 61.8629L55.3057 58.9816L62.42 54.8908V32.9431C62.42 32.9431 61.0683 49.7329 54.203 58.3057C53.0647 59.7642 51.7485 60.9736 50.2545 61.8273C50.1478 61.8985 50.0411 61.9341 49.9699 62.0052C49.7921 62.1119 49.6142 62.2186 49.4719 62.3609Z" fill="#A15267"/>
<path d="M0.77417 19.3546L31.3659 37.7097L31.2592 71.574" stroke="#E9EBFF" stroke-miterlimit="10" stroke-linecap="round" stroke-linejoin="round"/>
<path d="M31.366 37.7097L61.7443 19.3546" stroke="#E9EBFF" stroke-miterlimit="10" stroke-linecap="round" stroke-linejoin="round"/>
</svg>
